<mxfile host="Electron" modified="2023-10-22T16:38:37.506Z" agent="Mozilla/5.0 (Windows NT 10.0; Win64; x64) AppleWebKit/537.36 (KHTML, like Gecko) draw.io/22.0.2 Chrome/114.0.5735.289 Electron/25.8.4 Safari/537.36" etag="Wm8TYTvb4R3BepUPBph0" version="22.0.2" type="device" pages="4">
  <diagram id="PDhaTijUz1W2B9VS301T" name="UC09">
    <mxGraphModel dx="-2217" dy="2050" grid="1" gridSize="10" guides="1" tooltips="1" connect="1" arrows="1" fold="1" page="1" pageScale="1" pageWidth="827" pageHeight="1169" math="0" shadow="0">
      <root>
        <mxCell id="0" />
        <mxCell id="1" parent="0" />
        <mxCell id="hDse4P_Ypey-bQnOqMh0-1" value="UC09:Pesquisar interações alimentares" style="text;html=1;strokeColor=none;fillColor=none;align=center;verticalAlign=middle;whiteSpace=wrap;rounded=0;fontStyle=1;fontSize=14;" parent="1" vertex="1">
          <mxGeometry x="5315.5" y="30" width="190" height="30" as="geometry" />
        </mxCell>
        <mxCell id="hDse4P_Ypey-bQnOqMh0-2" value=":Utilizador" style="shape=umlActor;verticalLabelPosition=bottom;verticalAlign=top;html=1;outlineConnect=0;fontStyle=1;fontSize=17;" parent="1" vertex="1">
          <mxGeometry x="5090" y="100" width="60" height="120" as="geometry" />
        </mxCell>
        <mxCell id="hDse4P_Ypey-bQnOqMh0-3" value=":Sistema" style="rounded=0;whiteSpace=wrap;html=1;fontStyle=1;fontSize=17;" parent="1" vertex="1">
          <mxGeometry x="5585.5" y="170" width="120" height="60" as="geometry" />
        </mxCell>
        <mxCell id="hDse4P_Ypey-bQnOqMh0-4" value="" style="endArrow=none;dashed=1;html=1;rounded=0;fontStyle=1;fontSize=16;strokeWidth=1;" parent="1" edge="1">
          <mxGeometry width="50" height="50" relative="1" as="geometry">
            <mxPoint x="5116" y="250" as="sourcePoint" />
            <mxPoint x="5115.5" y="610" as="targetPoint" />
          </mxGeometry>
        </mxCell>
        <mxCell id="hDse4P_Ypey-bQnOqMh0-5" value="" style="endArrow=none;dashed=1;html=1;rounded=0;fontStyle=1;fontSize=16;strokeWidth=1;" parent="1" edge="1">
          <mxGeometry width="50" height="50" relative="1" as="geometry">
            <mxPoint x="5646" y="240" as="sourcePoint" />
            <mxPoint x="5645.5" y="600" as="targetPoint" />
          </mxGeometry>
        </mxCell>
        <mxCell id="hDse4P_Ypey-bQnOqMh0-6" value="" style="endArrow=classic;html=1;rounded=0;strokeWidth=2;" parent="1" edge="1">
          <mxGeometry width="50" height="50" relative="1" as="geometry">
            <mxPoint x="5115.5" y="260" as="sourcePoint" />
            <mxPoint x="5645.5" y="260" as="targetPoint" />
          </mxGeometry>
        </mxCell>
        <mxCell id="hDse4P_Ypey-bQnOqMh0-7" value="Sistema pede ao utilizador para indicar o nome do medicamento" style="text;html=1;align=center;verticalAlign=middle;resizable=0;points=[];autosize=1;strokeColor=none;fillColor=none;" parent="1" vertex="1">
          <mxGeometry x="5190.5" y="284" width="370" height="30" as="geometry" />
        </mxCell>
        <mxCell id="hDse4P_Ypey-bQnOqMh0-8" value="" style="endArrow=classic;dashed=1;html=1;dashPattern=1 3;strokeWidth=2;rounded=0;endFill=1;" parent="1" edge="1">
          <mxGeometry width="50" height="50" relative="1" as="geometry">
            <mxPoint x="5645.5" y="310" as="sourcePoint" />
            <mxPoint x="5115.5" y="310" as="targetPoint" />
          </mxGeometry>
        </mxCell>
        <mxCell id="hDse4P_Ypey-bQnOqMh0-9" value="PesquisaInteraçõesAlimentares()" style="text;html=1;align=center;verticalAlign=middle;resizable=0;points=[];autosize=1;strokeColor=none;fillColor=none;" parent="1" vertex="1">
          <mxGeometry x="5280.5" y="230" width="200" height="30" as="geometry" />
        </mxCell>
        <mxCell id="FfV_Z0KGJKMwaIBW4egx-3" value="IndicarTermoPesquisa()" style="text;html=1;align=center;verticalAlign=middle;resizable=0;points=[];autosize=1;strokeColor=none;fillColor=none;" parent="1" vertex="1">
          <mxGeometry x="5305.5" y="334" width="150" height="30" as="geometry" />
        </mxCell>
        <mxCell id="FfV_Z0KGJKMwaIBW4egx-6" value="" style="endArrow=classic;html=1;rounded=0;strokeWidth=2;" parent="1" edge="1">
          <mxGeometry width="50" height="50" relative="1" as="geometry">
            <mxPoint x="5115.5" y="360" as="sourcePoint" />
            <mxPoint x="5645.5" y="360" as="targetPoint" />
          </mxGeometry>
        </mxCell>
        <mxCell id="FfV_Z0KGJKMwaIBW4egx-8" value="" style="endArrow=classic;dashed=1;html=1;dashPattern=1 3;strokeWidth=2;rounded=0;endFill=1;" parent="1" edge="1">
          <mxGeometry width="50" height="50" relative="1" as="geometry">
            <mxPoint x="5645.5" y="410" as="sourcePoint" />
            <mxPoint x="5115.5" y="410" as="targetPoint" />
          </mxGeometry>
        </mxCell>
        <mxCell id="FfV_Z0KGJKMwaIBW4egx-9" value="VerDetalhes()" style="text;html=1;align=center;verticalAlign=middle;resizable=0;points=[];autosize=1;strokeColor=none;fillColor=none;" parent="1" vertex="1">
          <mxGeometry x="5330.5" y="430" width="100" height="30" as="geometry" />
        </mxCell>
        <mxCell id="FfV_Z0KGJKMwaIBW4egx-10" value="" style="endArrow=classic;html=1;rounded=0;strokeWidth=2;" parent="1" edge="1">
          <mxGeometry width="50" height="50" relative="1" as="geometry">
            <mxPoint x="5115.5" y="460" as="sourcePoint" />
            <mxPoint x="5645.5" y="460" as="targetPoint" />
          </mxGeometry>
        </mxCell>
        <mxCell id="fv77SMsTQJSJ1dea6liw-4" value="alt" style="shape=umlFrame;whiteSpace=wrap;html=1;pointerEvents=0;" parent="1" vertex="1">
          <mxGeometry x="5033" y="430" width="685" height="60" as="geometry" />
        </mxCell>
        <mxCell id="fv77SMsTQJSJ1dea6liw-7" value="Sistema mostra a decrição e a referência bibliográfica da interação selecionada" style="text;html=1;align=center;verticalAlign=middle;resizable=0;points=[];autosize=1;strokeColor=none;fillColor=none;" parent="1" vertex="1">
          <mxGeometry x="5145.5" y="510" width="450" height="30" as="geometry" />
        </mxCell>
        <mxCell id="fv77SMsTQJSJ1dea6liw-8" value="" style="endArrow=classic;dashed=1;html=1;dashPattern=1 3;strokeWidth=2;rounded=0;endFill=1;" parent="1" edge="1">
          <mxGeometry width="50" height="50" relative="1" as="geometry">
            <mxPoint x="5640.5" y="540" as="sourcePoint" />
            <mxPoint x="5110.5" y="540" as="targetPoint" />
          </mxGeometry>
        </mxCell>
        <mxCell id="Npi8OjdbvmQSk9vdB1vN-20" value="3a: Se não indicou a informação" style="text;html=1;strokeColor=none;fillColor=none;align=center;verticalAlign=middle;whiteSpace=wrap;rounded=0;fontStyle=1;fontSize=14;" parent="1" vertex="1">
          <mxGeometry x="6132.5" y="30" width="190" height="30" as="geometry" />
        </mxCell>
        <mxCell id="Npi8OjdbvmQSk9vdB1vN-22" value=":Utilizador" style="shape=umlActor;verticalLabelPosition=bottom;verticalAlign=top;html=1;outlineConnect=0;fontStyle=1;fontSize=17;" parent="1" vertex="1">
          <mxGeometry x="5902.5" y="90" width="60" height="120" as="geometry" />
        </mxCell>
        <mxCell id="Npi8OjdbvmQSk9vdB1vN-23" value=":Sistema" style="rounded=0;whiteSpace=wrap;html=1;fontStyle=1;fontSize=17;" parent="1" vertex="1">
          <mxGeometry x="6402.5" y="150" width="120" height="60" as="geometry" />
        </mxCell>
        <mxCell id="Npi8OjdbvmQSk9vdB1vN-24" value="" style="endArrow=none;dashed=1;html=1;rounded=0;fontStyle=1;fontSize=16;strokeWidth=1;" parent="1" edge="1">
          <mxGeometry width="50" height="50" relative="1" as="geometry">
            <mxPoint x="5930" y="240" as="sourcePoint" />
            <mxPoint x="5930" y="600" as="targetPoint" />
          </mxGeometry>
        </mxCell>
        <mxCell id="Npi8OjdbvmQSk9vdB1vN-25" value="" style="endArrow=none;dashed=1;html=1;rounded=0;fontStyle=1;fontSize=16;strokeWidth=1;" parent="1" edge="1">
          <mxGeometry width="50" height="50" relative="1" as="geometry">
            <mxPoint x="6462" y="221" as="sourcePoint" />
            <mxPoint x="6463" y="600" as="targetPoint" />
          </mxGeometry>
        </mxCell>
        <mxCell id="Npi8OjdbvmQSk9vdB1vN-26" value="Indica que há dados em falta" style="text;html=1;align=center;verticalAlign=middle;resizable=0;points=[];autosize=1;strokeColor=none;fillColor=none;" parent="1" vertex="1">
          <mxGeometry x="6102.5" y="230" width="180" height="30" as="geometry" />
        </mxCell>
        <mxCell id="Npi8OjdbvmQSk9vdB1vN-27" value="" style="endArrow=classic;dashed=1;html=1;dashPattern=1 3;strokeWidth=2;rounded=0;endFill=1;" parent="1" edge="1">
          <mxGeometry width="50" height="50" relative="1" as="geometry">
            <mxPoint x="6462.5" y="260" as="sourcePoint" />
            <mxPoint x="5932.5" y="260" as="targetPoint" />
          </mxGeometry>
        </mxCell>
        <mxCell id="Npi8OjdbvmQSk9vdB1vN-28" value="Sistema pede para indicar os dados em falta" style="text;html=1;align=center;verticalAlign=middle;resizable=0;points=[];autosize=1;strokeColor=none;fillColor=none;" parent="1" vertex="1">
          <mxGeometry x="6062.5" y="280" width="260" height="30" as="geometry" />
        </mxCell>
        <mxCell id="Npi8OjdbvmQSk9vdB1vN-29" value="" style="endArrow=classic;dashed=1;html=1;dashPattern=1 3;strokeWidth=2;rounded=0;endFill=1;" parent="1" edge="1">
          <mxGeometry width="50" height="50" relative="1" as="geometry">
            <mxPoint x="6462.5" y="310" as="sourcePoint" />
            <mxPoint x="5932.5" y="310" as="targetPoint" />
          </mxGeometry>
        </mxCell>
        <mxCell id="Npi8OjdbvmQSk9vdB1vN-30" value="IndicarTermoPesquisa()" style="text;html=1;align=center;verticalAlign=middle;resizable=0;points=[];autosize=1;strokeColor=none;fillColor=none;" parent="1" vertex="1">
          <mxGeometry x="6122.5" y="330" width="150" height="30" as="geometry" />
        </mxCell>
        <mxCell id="Npi8OjdbvmQSk9vdB1vN-31" value="" style="endArrow=classic;html=1;rounded=0;strokeWidth=2;" parent="1" edge="1">
          <mxGeometry width="50" height="50" relative="1" as="geometry">
            <mxPoint x="5932.5" y="360" as="sourcePoint" />
            <mxPoint x="6462.5" y="360" as="targetPoint" />
          </mxGeometry>
        </mxCell>
        <mxCell id="Npi8OjdbvmQSk9vdB1vN-33" value="" style="endArrow=classic;dashed=1;html=1;dashPattern=1 3;strokeWidth=2;rounded=0;endFill=1;" parent="1" edge="1">
          <mxGeometry width="50" height="50" relative="1" as="geometry">
            <mxPoint x="6462.5" y="410" as="sourcePoint" />
            <mxPoint x="5932.5" y="410" as="targetPoint" />
          </mxGeometry>
        </mxCell>
        <mxCell id="Npi8OjdbvmQSk9vdB1vN-34" value="VerDetalhes()" style="text;html=1;align=center;verticalAlign=middle;resizable=0;points=[];autosize=1;strokeColor=none;fillColor=none;" parent="1" vertex="1">
          <mxGeometry x="6147.5" y="430" width="100" height="30" as="geometry" />
        </mxCell>
        <mxCell id="Npi8OjdbvmQSk9vdB1vN-35" value="" style="endArrow=classic;html=1;rounded=0;strokeWidth=2;" parent="1" edge="1">
          <mxGeometry width="50" height="50" relative="1" as="geometry">
            <mxPoint x="5932.5" y="460" as="sourcePoint" />
            <mxPoint x="6462.5" y="460" as="targetPoint" />
          </mxGeometry>
        </mxCell>
        <mxCell id="Npi8OjdbvmQSk9vdB1vN-36" value="alt" style="shape=umlFrame;whiteSpace=wrap;html=1;pointerEvents=0;" parent="1" vertex="1">
          <mxGeometry x="5850" y="430" width="685" height="60" as="geometry" />
        </mxCell>
        <mxCell id="Npi8OjdbvmQSk9vdB1vN-38" value="" style="endArrow=classic;dashed=1;html=1;dashPattern=1 3;strokeWidth=2;rounded=0;endFill=1;" parent="1" edge="1">
          <mxGeometry width="50" height="50" relative="1" as="geometry">
            <mxPoint x="6457.5" y="540" as="sourcePoint" />
            <mxPoint x="5927.5" y="540" as="targetPoint" />
          </mxGeometry>
        </mxCell>
        <mxCell id="-nd3xLnnH4Wf7VmUfErQ-1" value="3b:Se o medicamento não existir" style="text;html=1;strokeColor=none;fillColor=none;align=center;verticalAlign=middle;whiteSpace=wrap;rounded=0;fontStyle=1;fontSize=14;" parent="1" vertex="1">
          <mxGeometry x="6972.5" y="40" width="190" height="30" as="geometry" />
        </mxCell>
        <mxCell id="-nd3xLnnH4Wf7VmUfErQ-2" value="" style="edgeStyle=orthogonalEdgeStyle;rounded=0;orthogonalLoop=1;jettySize=auto;html=1;" parent="1" source="-nd3xLnnH4Wf7VmUfErQ-3" edge="1">
          <mxGeometry relative="1" as="geometry">
            <mxPoint x="6772.5" y="270" as="targetPoint" />
          </mxGeometry>
        </mxCell>
        <mxCell id="-nd3xLnnH4Wf7VmUfErQ-3" value=":Utilizador" style="shape=umlActor;verticalLabelPosition=bottom;verticalAlign=top;html=1;outlineConnect=0;fontStyle=1;fontSize=17;" parent="1" vertex="1">
          <mxGeometry x="6742.5" y="70" width="60" height="120" as="geometry" />
        </mxCell>
        <mxCell id="-nd3xLnnH4Wf7VmUfErQ-4" value=":Sistema" style="rounded=0;whiteSpace=wrap;html=1;fontStyle=1;fontSize=17;" parent="1" vertex="1">
          <mxGeometry x="7242.5" y="160" width="120" height="60" as="geometry" />
        </mxCell>
        <mxCell id="-nd3xLnnH4Wf7VmUfErQ-5" value="" style="endArrow=none;dashed=1;html=1;rounded=0;fontStyle=1;fontSize=16;strokeWidth=1;" parent="1" edge="1">
          <mxGeometry width="50" height="50" relative="1" as="geometry">
            <mxPoint x="6772.5" y="231" as="sourcePoint" />
            <mxPoint x="6773" y="610" as="targetPoint" />
          </mxGeometry>
        </mxCell>
        <mxCell id="-nd3xLnnH4Wf7VmUfErQ-6" value="" style="endArrow=none;dashed=1;html=1;rounded=0;fontStyle=1;fontSize=16;strokeWidth=1;" parent="1" edge="1">
          <mxGeometry width="50" height="50" relative="1" as="geometry">
            <mxPoint x="7302" y="231" as="sourcePoint" />
            <mxPoint x="7303" y="610" as="targetPoint" />
          </mxGeometry>
        </mxCell>
        <mxCell id="-nd3xLnnH4Wf7VmUfErQ-7" value="Indica que medicamento não existe" style="text;html=1;align=center;verticalAlign=middle;resizable=0;points=[];autosize=1;strokeColor=none;fillColor=none;" parent="1" vertex="1">
          <mxGeometry x="6927.5" y="240" width="210" height="30" as="geometry" />
        </mxCell>
        <mxCell id="-nd3xLnnH4Wf7VmUfErQ-8" value="" style="endArrow=classic;dashed=1;html=1;dashPattern=1 3;strokeWidth=2;rounded=0;endFill=1;" parent="1" edge="1">
          <mxGeometry width="50" height="50" relative="1" as="geometry">
            <mxPoint x="7302.5" y="270" as="sourcePoint" />
            <mxPoint x="6772.5" y="270" as="targetPoint" />
          </mxGeometry>
        </mxCell>
        <mxCell id="-nd3xLnnH4Wf7VmUfErQ-9" value="Pede ao utilizador para indicar nome do medicamento" style="text;html=1;align=center;verticalAlign=middle;resizable=0;points=[];autosize=1;strokeColor=none;fillColor=none;" parent="1" vertex="1">
          <mxGeometry x="6877.5" y="290" width="310" height="30" as="geometry" />
        </mxCell>
        <mxCell id="-nd3xLnnH4Wf7VmUfErQ-10" value="" style="endArrow=classic;dashed=1;html=1;dashPattern=1 3;strokeWidth=2;rounded=0;endFill=1;" parent="1" edge="1">
          <mxGeometry width="50" height="50" relative="1" as="geometry">
            <mxPoint x="7302.5" y="320" as="sourcePoint" />
            <mxPoint x="6772.5" y="320" as="targetPoint" />
          </mxGeometry>
        </mxCell>
        <mxCell id="-nd3xLnnH4Wf7VmUfErQ-11" value="IndicarTermoPesquisa()" style="text;html=1;align=center;verticalAlign=middle;resizable=0;points=[];autosize=1;strokeColor=none;fillColor=none;" parent="1" vertex="1">
          <mxGeometry x="6962.5" y="340" width="150" height="30" as="geometry" />
        </mxCell>
        <mxCell id="-nd3xLnnH4Wf7VmUfErQ-12" value="" style="endArrow=classic;html=1;rounded=0;strokeWidth=2;" parent="1" edge="1">
          <mxGeometry width="50" height="50" relative="1" as="geometry">
            <mxPoint x="6772.5" y="370" as="sourcePoint" />
            <mxPoint x="7302.5" y="370" as="targetPoint" />
          </mxGeometry>
        </mxCell>
        <mxCell id="-nd3xLnnH4Wf7VmUfErQ-14" value="" style="endArrow=classic;dashed=1;html=1;dashPattern=1 3;strokeWidth=2;rounded=0;endFill=1;" parent="1" edge="1">
          <mxGeometry width="50" height="50" relative="1" as="geometry">
            <mxPoint x="7302.5" y="420" as="sourcePoint" />
            <mxPoint x="6772.5" y="420" as="targetPoint" />
          </mxGeometry>
        </mxCell>
        <mxCell id="-nd3xLnnH4Wf7VmUfErQ-15" value="VerDetalhes()" style="text;html=1;align=center;verticalAlign=middle;resizable=0;points=[];autosize=1;strokeColor=none;fillColor=none;" parent="1" vertex="1">
          <mxGeometry x="6987.5" y="440" width="100" height="30" as="geometry" />
        </mxCell>
        <mxCell id="-nd3xLnnH4Wf7VmUfErQ-16" value="" style="endArrow=classic;html=1;rounded=0;strokeWidth=2;" parent="1" edge="1">
          <mxGeometry width="50" height="50" relative="1" as="geometry">
            <mxPoint x="6772.5" y="470" as="sourcePoint" />
            <mxPoint x="7302.5" y="470" as="targetPoint" />
          </mxGeometry>
        </mxCell>
        <mxCell id="-nd3xLnnH4Wf7VmUfErQ-17" value="alt" style="shape=umlFrame;whiteSpace=wrap;html=1;pointerEvents=0;" parent="1" vertex="1">
          <mxGeometry x="6690" y="440" width="685" height="60" as="geometry" />
        </mxCell>
        <mxCell id="-nd3xLnnH4Wf7VmUfErQ-19" value="" style="endArrow=classic;dashed=1;html=1;dashPattern=1 3;strokeWidth=2;rounded=0;endFill=1;" parent="1" edge="1">
          <mxGeometry width="50" height="50" relative="1" as="geometry">
            <mxPoint x="7297.5" y="550" as="sourcePoint" />
            <mxPoint x="6767.5" y="550" as="targetPoint" />
          </mxGeometry>
        </mxCell>
        <mxCell id="EynjpdePGBy_KZ4SNgCF-1" value="3c:Se não houver interações alimentares" style="text;html=1;strokeColor=none;fillColor=none;align=center;verticalAlign=middle;whiteSpace=wrap;rounded=0;fontStyle=1;fontSize=14;" parent="1" vertex="1">
          <mxGeometry x="7740" y="40" width="190" height="30" as="geometry" />
        </mxCell>
        <mxCell id="EynjpdePGBy_KZ4SNgCF-3" value=":Utilizador" style="shape=umlActor;verticalLabelPosition=bottom;verticalAlign=top;html=1;outlineConnect=0;fontStyle=1;fontSize=17;" parent="1" vertex="1">
          <mxGeometry x="7510" y="74" width="60" height="120" as="geometry" />
        </mxCell>
        <mxCell id="EynjpdePGBy_KZ4SNgCF-4" value=":Sistema" style="rounded=0;whiteSpace=wrap;html=1;fontStyle=1;fontSize=17;" parent="1" vertex="1">
          <mxGeometry x="8010" y="160" width="120" height="60" as="geometry" />
        </mxCell>
        <mxCell id="EynjpdePGBy_KZ4SNgCF-5" value="" style="endArrow=none;dashed=1;html=1;rounded=0;fontStyle=1;fontSize=16;strokeWidth=1;" parent="1" edge="1">
          <mxGeometry width="50" height="50" relative="1" as="geometry">
            <mxPoint x="7540" y="231" as="sourcePoint" />
            <mxPoint x="7540" y="340" as="targetPoint" />
          </mxGeometry>
        </mxCell>
        <mxCell id="EynjpdePGBy_KZ4SNgCF-6" value="" style="endArrow=none;dashed=1;html=1;rounded=0;fontStyle=1;fontSize=16;strokeWidth=1;" parent="1" edge="1">
          <mxGeometry width="50" height="50" relative="1" as="geometry">
            <mxPoint x="8069.5" y="231" as="sourcePoint" />
            <mxPoint x="8070" y="340" as="targetPoint" />
          </mxGeometry>
        </mxCell>
        <mxCell id="EynjpdePGBy_KZ4SNgCF-7" value="Não Existe interações para o medicamento" style="text;html=1;align=center;verticalAlign=middle;resizable=0;points=[];autosize=1;strokeColor=none;fillColor=none;" parent="1" vertex="1">
          <mxGeometry x="7675" y="240" width="250" height="30" as="geometry" />
        </mxCell>
        <mxCell id="EynjpdePGBy_KZ4SNgCF-8" value="" style="endArrow=classic;dashed=1;html=1;dashPattern=1 3;strokeWidth=2;rounded=0;endFill=1;" parent="1" edge="1">
          <mxGeometry width="50" height="50" relative="1" as="geometry">
            <mxPoint x="8070" y="270" as="sourcePoint" />
            <mxPoint x="7540" y="270" as="targetPoint" />
          </mxGeometry>
        </mxCell>
        <mxCell id="9mROD-92J_PfAf_98K6k-1" value="3d:O utilizador cancela a pesquisa" style="text;html=1;strokeColor=none;fillColor=none;align=center;verticalAlign=middle;whiteSpace=wrap;rounded=0;fontStyle=1;fontSize=14;" parent="1" vertex="1">
          <mxGeometry x="8570" y="30" width="190" height="30" as="geometry" />
        </mxCell>
        <mxCell id="9mROD-92J_PfAf_98K6k-3" value=":Utilizador" style="shape=umlActor;verticalLabelPosition=bottom;verticalAlign=top;html=1;outlineConnect=0;fontStyle=1;fontSize=17;" parent="1" vertex="1">
          <mxGeometry x="8340" y="74" width="60" height="120" as="geometry" />
        </mxCell>
        <mxCell id="9mROD-92J_PfAf_98K6k-4" value=":Sistema" style="rounded=0;whiteSpace=wrap;html=1;fontStyle=1;fontSize=17;" parent="1" vertex="1">
          <mxGeometry x="8840" y="150" width="120" height="60" as="geometry" />
        </mxCell>
        <mxCell id="9mROD-92J_PfAf_98K6k-5" value="" style="endArrow=none;dashed=1;html=1;rounded=0;fontStyle=1;fontSize=16;strokeWidth=1;" parent="1" edge="1">
          <mxGeometry width="50" height="50" relative="1" as="geometry">
            <mxPoint x="8370" y="221" as="sourcePoint" />
            <mxPoint x="8370" y="350" as="targetPoint" />
          </mxGeometry>
        </mxCell>
        <mxCell id="9mROD-92J_PfAf_98K6k-6" value="" style="endArrow=none;dashed=1;html=1;rounded=0;fontStyle=1;fontSize=16;strokeWidth=1;" parent="1" edge="1">
          <mxGeometry width="50" height="50" relative="1" as="geometry">
            <mxPoint x="8899.5" y="221" as="sourcePoint" />
            <mxPoint x="8900" y="350" as="targetPoint" />
          </mxGeometry>
        </mxCell>
        <mxCell id="9mROD-92J_PfAf_98K6k-7" value="CancelarPesquisa()" style="text;html=1;align=center;verticalAlign=middle;resizable=0;points=[];autosize=1;strokeColor=none;fillColor=none;" parent="1" vertex="1">
          <mxGeometry x="8570" y="240" width="130" height="30" as="geometry" />
        </mxCell>
        <mxCell id="9mROD-92J_PfAf_98K6k-8" value="" style="endArrow=classic;html=1;rounded=0;strokeWidth=2;" parent="1" edge="1">
          <mxGeometry width="50" height="50" relative="1" as="geometry">
            <mxPoint x="8370" y="270" as="sourcePoint" />
            <mxPoint x="8900" y="270" as="targetPoint" />
          </mxGeometry>
        </mxCell>
        <mxCell id="D09pnxcB8FhdIOHwiY7J-1" value="Sistema mostra a substância ativa, alimento e efeito para todas interações alimentares existentes para o medicamento" style="text;html=1;strokeColor=none;fillColor=none;align=center;verticalAlign=middle;whiteSpace=wrap;rounded=0;" vertex="1" parent="1">
          <mxGeometry x="5220" y="380" width="350" height="30" as="geometry" />
        </mxCell>
        <mxCell id="D09pnxcB8FhdIOHwiY7J-2" value="Sistema mostra a substância ativa, alimento e efeito para todas interações alimentares existentes para o medicamento" style="text;html=1;strokeColor=none;fillColor=none;align=center;verticalAlign=middle;whiteSpace=wrap;rounded=0;" vertex="1" parent="1">
          <mxGeometry x="6000" y="380" width="350" height="30" as="geometry" />
        </mxCell>
        <mxCell id="D09pnxcB8FhdIOHwiY7J-3" value="Sistema mostra a decrição e a referência bibliográfica da interação selecionada" style="text;html=1;align=center;verticalAlign=middle;resizable=0;points=[];autosize=1;strokeColor=none;fillColor=none;" vertex="1" parent="1">
          <mxGeometry x="5978" y="510" width="450" height="30" as="geometry" />
        </mxCell>
        <mxCell id="D09pnxcB8FhdIOHwiY7J-4" value="Sistema mostra a substância ativa, alimento e efeito para todas interações alimentares existentes para o medicamento" style="text;html=1;strokeColor=none;fillColor=none;align=center;verticalAlign=middle;whiteSpace=wrap;rounded=0;" vertex="1" parent="1">
          <mxGeometry x="6852.5" y="390" width="350" height="30" as="geometry" />
        </mxCell>
        <mxCell id="D09pnxcB8FhdIOHwiY7J-5" value="Sistema mostra a decrição e a referência bibliográfica da interação selecionada" style="text;html=1;align=center;verticalAlign=middle;resizable=0;points=[];autosize=1;strokeColor=none;fillColor=none;" vertex="1" parent="1">
          <mxGeometry x="6812.5" y="520" width="450" height="30" as="geometry" />
        </mxCell>
      </root>
    </mxGraphModel>
  </diagram>
  <diagram id="RmqISZ5cxPwuzMCjf3WB" name="UC10">
    <mxGraphModel dx="-3584" dy="1973" grid="1" gridSize="10" guides="1" tooltips="1" connect="1" arrows="1" fold="1" page="1" pageScale="1" pageWidth="827" pageHeight="1169" math="0" shadow="0">
      <root>
        <mxCell id="0" />
        <mxCell id="1" parent="0" />
        <mxCell id="9OeMlv5DkkwpeZTBS1o4-1" value="UC10:Pesquisar contato da farmacovigilancia" style="text;html=1;strokeColor=none;fillColor=none;align=center;verticalAlign=middle;whiteSpace=wrap;rounded=0;fontStyle=1;fontSize=14;" parent="1" vertex="1">
          <mxGeometry x="5480" y="-210" width="190" height="30" as="geometry" />
        </mxCell>
        <mxCell id="9OeMlv5DkkwpeZTBS1o4-2" value="" style="edgeStyle=orthogonalEdgeStyle;rounded=0;orthogonalLoop=1;jettySize=auto;html=1;" parent="1" source="9OeMlv5DkkwpeZTBS1o4-3" edge="1">
          <mxGeometry relative="1" as="geometry">
            <mxPoint x="5280" y="20" as="targetPoint" />
          </mxGeometry>
        </mxCell>
        <mxCell id="9OeMlv5DkkwpeZTBS1o4-3" value=":Utilizador" style="shape=umlActor;verticalLabelPosition=bottom;verticalAlign=top;html=1;outlineConnect=0;fontStyle=1;fontSize=17;" parent="1" vertex="1">
          <mxGeometry x="5250" y="-180" width="60" height="120" as="geometry" />
        </mxCell>
        <mxCell id="9OeMlv5DkkwpeZTBS1o4-4" value=":Sistema" style="rounded=0;whiteSpace=wrap;html=1;fontStyle=1;fontSize=17;" parent="1" vertex="1">
          <mxGeometry x="5750" y="-90" width="120" height="60" as="geometry" />
        </mxCell>
        <mxCell id="9OeMlv5DkkwpeZTBS1o4-5" value="" style="endArrow=none;dashed=1;html=1;rounded=0;fontStyle=1;fontSize=16;strokeWidth=1;" parent="1" edge="1">
          <mxGeometry width="50" height="50" relative="1" as="geometry">
            <mxPoint x="5280" y="-19" as="sourcePoint" />
            <mxPoint x="5280" y="240" as="targetPoint" />
          </mxGeometry>
        </mxCell>
        <mxCell id="9OeMlv5DkkwpeZTBS1o4-6" value="" style="endArrow=none;dashed=1;html=1;rounded=0;fontStyle=1;fontSize=16;strokeWidth=1;" parent="1" edge="1">
          <mxGeometry width="50" height="50" relative="1" as="geometry">
            <mxPoint x="5809.5" y="-19" as="sourcePoint" />
            <mxPoint x="5810" y="240" as="targetPoint" />
          </mxGeometry>
        </mxCell>
        <mxCell id="9OeMlv5DkkwpeZTBS1o4-7" value="" style="endArrow=classic;html=1;rounded=0;strokeWidth=2;" parent="1" edge="1">
          <mxGeometry width="50" height="50" relative="1" as="geometry">
            <mxPoint x="5280" y="20" as="sourcePoint" />
            <mxPoint x="5810" y="20" as="targetPoint" />
          </mxGeometry>
        </mxCell>
        <mxCell id="9OeMlv5DkkwpeZTBS1o4-8" value="IndicarNomeMedicamento" style="text;html=1;align=center;verticalAlign=middle;resizable=0;points=[];autosize=1;strokeColor=none;fillColor=none;" parent="1" vertex="1">
          <mxGeometry x="5460" y="40" width="160" height="30" as="geometry" />
        </mxCell>
        <mxCell id="9OeMlv5DkkwpeZTBS1o4-9" value="" style="endArrow=classic;dashed=1;html=1;dashPattern=1 3;strokeWidth=2;rounded=0;endFill=1;" parent="1" edge="1">
          <mxGeometry width="50" height="50" relative="1" as="geometry">
            <mxPoint x="5810" y="70" as="sourcePoint" />
            <mxPoint x="5280" y="70" as="targetPoint" />
          </mxGeometry>
        </mxCell>
        <mxCell id="9OeMlv5DkkwpeZTBS1o4-10" value="IniciarPesquisaContatoFarmaCovigilancia()" style="text;html=1;align=center;verticalAlign=middle;resizable=0;points=[];autosize=1;strokeColor=none;fillColor=none;" parent="1" vertex="1">
          <mxGeometry x="5420" y="-10" width="250" height="30" as="geometry" />
        </mxCell>
        <mxCell id="9OeMlv5DkkwpeZTBS1o4-11" value="IndicarTermoPesquisa()" style="text;html=1;align=center;verticalAlign=middle;resizable=0;points=[];autosize=1;strokeColor=none;fillColor=none;" parent="1" vertex="1">
          <mxGeometry x="5470" y="90" width="150" height="30" as="geometry" />
        </mxCell>
        <mxCell id="9OeMlv5DkkwpeZTBS1o4-12" value="" style="endArrow=classic;html=1;rounded=0;strokeWidth=2;" parent="1" edge="1">
          <mxGeometry width="50" height="50" relative="1" as="geometry">
            <mxPoint x="5280" y="120" as="sourcePoint" />
            <mxPoint x="5810" y="120" as="targetPoint" />
          </mxGeometry>
        </mxCell>
        <mxCell id="9OeMlv5DkkwpeZTBS1o4-13" value="Mostra nome, email, telefone" style="text;html=1;align=center;verticalAlign=middle;resizable=0;points=[];autosize=1;strokeColor=none;fillColor=none;" parent="1" vertex="1">
          <mxGeometry x="5450" y="140" width="180" height="30" as="geometry" />
        </mxCell>
        <mxCell id="9OeMlv5DkkwpeZTBS1o4-14" value="" style="endArrow=classic;dashed=1;html=1;dashPattern=1 3;strokeWidth=2;rounded=0;endFill=1;" parent="1" edge="1">
          <mxGeometry width="50" height="50" relative="1" as="geometry">
            <mxPoint x="5810" y="170" as="sourcePoint" />
            <mxPoint x="5280" y="170" as="targetPoint" />
          </mxGeometry>
        </mxCell>
        <mxCell id="rduZXuOO15uLA9PohZZ0-1" value="2d: O utilizador cancela a pesquisa" style="text;html=1;strokeColor=none;fillColor=none;align=center;verticalAlign=middle;whiteSpace=wrap;rounded=0;fontStyle=1;fontSize=14;" parent="1" vertex="1">
          <mxGeometry x="6160" y="-210" width="190" height="30" as="geometry" />
        </mxCell>
        <mxCell id="rduZXuOO15uLA9PohZZ0-2" value="" style="edgeStyle=orthogonalEdgeStyle;rounded=0;orthogonalLoop=1;jettySize=auto;html=1;" parent="1" source="rduZXuOO15uLA9PohZZ0-3" edge="1">
          <mxGeometry relative="1" as="geometry">
            <mxPoint x="5960" y="20" as="targetPoint" />
          </mxGeometry>
        </mxCell>
        <mxCell id="rduZXuOO15uLA9PohZZ0-3" value=":Utilizador" style="shape=umlActor;verticalLabelPosition=bottom;verticalAlign=top;html=1;outlineConnect=0;fontStyle=1;fontSize=17;" parent="1" vertex="1">
          <mxGeometry x="5930" y="-180" width="60" height="120" as="geometry" />
        </mxCell>
        <mxCell id="rduZXuOO15uLA9PohZZ0-4" value=":Sistema" style="rounded=0;whiteSpace=wrap;html=1;fontStyle=1;fontSize=17;" parent="1" vertex="1">
          <mxGeometry x="6430" y="-90" width="120" height="60" as="geometry" />
        </mxCell>
        <mxCell id="rduZXuOO15uLA9PohZZ0-5" value="" style="endArrow=none;dashed=1;html=1;rounded=0;fontStyle=1;fontSize=16;strokeWidth=1;" parent="1" edge="1">
          <mxGeometry width="50" height="50" relative="1" as="geometry">
            <mxPoint x="5960" y="-19" as="sourcePoint" />
            <mxPoint x="5960" y="120" as="targetPoint" />
          </mxGeometry>
        </mxCell>
        <mxCell id="rduZXuOO15uLA9PohZZ0-6" value="" style="endArrow=none;dashed=1;html=1;rounded=0;fontStyle=1;fontSize=16;strokeWidth=1;" parent="1" edge="1">
          <mxGeometry width="50" height="50" relative="1" as="geometry">
            <mxPoint x="6489.5" y="-19" as="sourcePoint" />
            <mxPoint x="6490" y="130" as="targetPoint" />
          </mxGeometry>
        </mxCell>
        <mxCell id="rduZXuOO15uLA9PohZZ0-7" value="" style="endArrow=classic;html=1;rounded=0;strokeWidth=2;" parent="1" edge="1">
          <mxGeometry width="50" height="50" relative="1" as="geometry">
            <mxPoint x="5960" y="20" as="sourcePoint" />
            <mxPoint x="6490" y="20" as="targetPoint" />
          </mxGeometry>
        </mxCell>
        <mxCell id="rduZXuOO15uLA9PohZZ0-10" value="CancelarPesquisa()" style="text;html=1;align=center;verticalAlign=middle;resizable=0;points=[];autosize=1;strokeColor=none;fillColor=none;" parent="1" vertex="1">
          <mxGeometry x="6160" y="-10" width="130" height="30" as="geometry" />
        </mxCell>
        <mxCell id="rduZXuOO15uLA9PohZZ0-23" value="4a: Se não indicou a informção" style="text;html=1;strokeColor=none;fillColor=none;align=center;verticalAlign=middle;whiteSpace=wrap;rounded=0;fontStyle=1;fontSize=14;" parent="1" vertex="1">
          <mxGeometry x="6880" y="-210" width="190" height="30" as="geometry" />
        </mxCell>
        <mxCell id="rduZXuOO15uLA9PohZZ0-24" value="" style="edgeStyle=orthogonalEdgeStyle;rounded=0;orthogonalLoop=1;jettySize=auto;html=1;" parent="1" source="rduZXuOO15uLA9PohZZ0-25" edge="1">
          <mxGeometry relative="1" as="geometry">
            <mxPoint x="6680" y="20" as="targetPoint" />
          </mxGeometry>
        </mxCell>
        <mxCell id="rduZXuOO15uLA9PohZZ0-25" value=":Utilizador" style="shape=umlActor;verticalLabelPosition=bottom;verticalAlign=top;html=1;outlineConnect=0;fontStyle=1;fontSize=17;" parent="1" vertex="1">
          <mxGeometry x="6650" y="-180" width="60" height="120" as="geometry" />
        </mxCell>
        <mxCell id="rduZXuOO15uLA9PohZZ0-26" value=":Sistema" style="rounded=0;whiteSpace=wrap;html=1;fontStyle=1;fontSize=17;" parent="1" vertex="1">
          <mxGeometry x="7150" y="-90" width="120" height="60" as="geometry" />
        </mxCell>
        <mxCell id="rduZXuOO15uLA9PohZZ0-27" value="" style="endArrow=none;dashed=1;html=1;rounded=0;fontStyle=1;fontSize=16;strokeWidth=1;" parent="1" edge="1">
          <mxGeometry width="50" height="50" relative="1" as="geometry">
            <mxPoint x="6680" y="-19" as="sourcePoint" />
            <mxPoint x="6680" y="250" as="targetPoint" />
          </mxGeometry>
        </mxCell>
        <mxCell id="rduZXuOO15uLA9PohZZ0-28" value="" style="endArrow=none;dashed=1;html=1;rounded=0;fontStyle=1;fontSize=16;strokeWidth=1;" parent="1" edge="1">
          <mxGeometry width="50" height="50" relative="1" as="geometry">
            <mxPoint x="7209.5" y="-19" as="sourcePoint" />
            <mxPoint x="7210" y="270" as="targetPoint" />
          </mxGeometry>
        </mxCell>
        <mxCell id="rduZXuOO15uLA9PohZZ0-37" value="IndicarNomeMedicamento" style="text;html=1;align=center;verticalAlign=middle;resizable=0;points=[];autosize=1;strokeColor=none;fillColor=none;" parent="1" vertex="1">
          <mxGeometry x="6860" y="40" width="160" height="30" as="geometry" />
        </mxCell>
        <mxCell id="rduZXuOO15uLA9PohZZ0-38" value="" style="endArrow=classic;dashed=1;html=1;dashPattern=1 3;strokeWidth=2;rounded=0;endFill=1;" parent="1" edge="1">
          <mxGeometry width="50" height="50" relative="1" as="geometry">
            <mxPoint x="7210" y="70" as="sourcePoint" />
            <mxPoint x="6680" y="70" as="targetPoint" />
          </mxGeometry>
        </mxCell>
        <mxCell id="rduZXuOO15uLA9PohZZ0-39" value="IndicarTermoPesquisa()" style="text;html=1;align=center;verticalAlign=middle;resizable=0;points=[];autosize=1;strokeColor=none;fillColor=none;" parent="1" vertex="1">
          <mxGeometry x="6870" y="90" width="150" height="30" as="geometry" />
        </mxCell>
        <mxCell id="rduZXuOO15uLA9PohZZ0-40" value="" style="endArrow=classic;html=1;rounded=0;strokeWidth=2;" parent="1" edge="1">
          <mxGeometry width="50" height="50" relative="1" as="geometry">
            <mxPoint x="6680" y="120" as="sourcePoint" />
            <mxPoint x="7210" y="120" as="targetPoint" />
          </mxGeometry>
        </mxCell>
        <mxCell id="rduZXuOO15uLA9PohZZ0-41" value="Mostra nome, email, telefone" style="text;html=1;align=center;verticalAlign=middle;resizable=0;points=[];autosize=1;strokeColor=none;fillColor=none;" parent="1" vertex="1">
          <mxGeometry x="6850" y="140" width="180" height="30" as="geometry" />
        </mxCell>
        <mxCell id="rduZXuOO15uLA9PohZZ0-42" value="" style="endArrow=classic;dashed=1;html=1;dashPattern=1 3;strokeWidth=2;rounded=0;endFill=1;" parent="1" edge="1">
          <mxGeometry width="50" height="50" relative="1" as="geometry">
            <mxPoint x="7210" y="170" as="sourcePoint" />
            <mxPoint x="6680" y="170" as="targetPoint" />
          </mxGeometry>
        </mxCell>
        <mxCell id="rduZXuOO15uLA9PohZZ0-43" value="Dados em falta" style="text;html=1;align=center;verticalAlign=middle;resizable=0;points=[];autosize=1;strokeColor=none;fillColor=none;" parent="1" vertex="1">
          <mxGeometry x="6890" y="-10.590000000000003" width="100" height="30" as="geometry" />
        </mxCell>
        <mxCell id="rduZXuOO15uLA9PohZZ0-44" value="" style="endArrow=classic;dashed=1;html=1;dashPattern=1 3;strokeWidth=2;rounded=0;endFill=1;" parent="1" edge="1">
          <mxGeometry width="50" height="50" relative="1" as="geometry">
            <mxPoint x="7210" y="19.409999999999997" as="sourcePoint" />
            <mxPoint x="6680" y="19.409999999999997" as="targetPoint" />
          </mxGeometry>
        </mxCell>
        <mxCell id="rduZXuOO15uLA9PohZZ0-45" value="4b: Se o medicamento não existir" style="text;html=1;strokeColor=none;fillColor=none;align=center;verticalAlign=middle;whiteSpace=wrap;rounded=0;fontStyle=1;fontSize=14;" parent="1" vertex="1">
          <mxGeometry x="7590" y="-210" width="190" height="30" as="geometry" />
        </mxCell>
        <mxCell id="rduZXuOO15uLA9PohZZ0-46" value="" style="edgeStyle=orthogonalEdgeStyle;rounded=0;orthogonalLoop=1;jettySize=auto;html=1;" parent="1" source="rduZXuOO15uLA9PohZZ0-47" edge="1">
          <mxGeometry relative="1" as="geometry">
            <mxPoint x="7390" y="20" as="targetPoint" />
          </mxGeometry>
        </mxCell>
        <mxCell id="rduZXuOO15uLA9PohZZ0-47" value=":Utilizador" style="shape=umlActor;verticalLabelPosition=bottom;verticalAlign=top;html=1;outlineConnect=0;fontStyle=1;fontSize=17;" parent="1" vertex="1">
          <mxGeometry x="7360" y="-180" width="60" height="120" as="geometry" />
        </mxCell>
        <mxCell id="rduZXuOO15uLA9PohZZ0-48" value=":Sistema" style="rounded=0;whiteSpace=wrap;html=1;fontStyle=1;fontSize=17;" parent="1" vertex="1">
          <mxGeometry x="7860" y="-90" width="120" height="60" as="geometry" />
        </mxCell>
        <mxCell id="rduZXuOO15uLA9PohZZ0-49" value="" style="endArrow=none;dashed=1;html=1;rounded=0;fontStyle=1;fontSize=16;strokeWidth=1;" parent="1" edge="1">
          <mxGeometry width="50" height="50" relative="1" as="geometry">
            <mxPoint x="7390" y="-19" as="sourcePoint" />
            <mxPoint x="7390" y="250" as="targetPoint" />
          </mxGeometry>
        </mxCell>
        <mxCell id="rduZXuOO15uLA9PohZZ0-50" value="" style="endArrow=none;dashed=1;html=1;rounded=0;fontStyle=1;fontSize=16;strokeWidth=1;" parent="1" edge="1">
          <mxGeometry width="50" height="50" relative="1" as="geometry">
            <mxPoint x="7919.5" y="-19" as="sourcePoint" />
            <mxPoint x="7920" y="270" as="targetPoint" />
          </mxGeometry>
        </mxCell>
        <mxCell id="rduZXuOO15uLA9PohZZ0-51" value="IndicarNomeMedicamento" style="text;html=1;align=center;verticalAlign=middle;resizable=0;points=[];autosize=1;strokeColor=none;fillColor=none;" parent="1" vertex="1">
          <mxGeometry x="7570" y="40" width="160" height="30" as="geometry" />
        </mxCell>
        <mxCell id="rduZXuOO15uLA9PohZZ0-52" value="" style="endArrow=classic;dashed=1;html=1;dashPattern=1 3;strokeWidth=2;rounded=0;endFill=1;" parent="1" edge="1">
          <mxGeometry width="50" height="50" relative="1" as="geometry">
            <mxPoint x="7920" y="70" as="sourcePoint" />
            <mxPoint x="7390" y="70" as="targetPoint" />
          </mxGeometry>
        </mxCell>
        <mxCell id="rduZXuOO15uLA9PohZZ0-53" value="IndicarTermoPesquisa()" style="text;html=1;align=center;verticalAlign=middle;resizable=0;points=[];autosize=1;strokeColor=none;fillColor=none;" parent="1" vertex="1">
          <mxGeometry x="7580" y="90" width="150" height="30" as="geometry" />
        </mxCell>
        <mxCell id="rduZXuOO15uLA9PohZZ0-54" value="" style="endArrow=classic;html=1;rounded=0;strokeWidth=2;" parent="1" edge="1">
          <mxGeometry width="50" height="50" relative="1" as="geometry">
            <mxPoint x="7390" y="120" as="sourcePoint" />
            <mxPoint x="7920" y="120" as="targetPoint" />
          </mxGeometry>
        </mxCell>
        <mxCell id="rduZXuOO15uLA9PohZZ0-55" value="Mostra nome, email, telefone" style="text;html=1;align=center;verticalAlign=middle;resizable=0;points=[];autosize=1;strokeColor=none;fillColor=none;" parent="1" vertex="1">
          <mxGeometry x="7560" y="140" width="180" height="30" as="geometry" />
        </mxCell>
        <mxCell id="rduZXuOO15uLA9PohZZ0-56" value="" style="endArrow=classic;dashed=1;html=1;dashPattern=1 3;strokeWidth=2;rounded=0;endFill=1;" parent="1" edge="1">
          <mxGeometry width="50" height="50" relative="1" as="geometry">
            <mxPoint x="7920" y="170" as="sourcePoint" />
            <mxPoint x="7390" y="170" as="targetPoint" />
          </mxGeometry>
        </mxCell>
        <mxCell id="rduZXuOO15uLA9PohZZ0-57" value="Medicamento não existe" style="text;html=1;align=center;verticalAlign=middle;resizable=0;points=[];autosize=1;strokeColor=none;fillColor=none;" parent="1" vertex="1">
          <mxGeometry x="7575" y="-10.590000000000003" width="150" height="30" as="geometry" />
        </mxCell>
        <mxCell id="rduZXuOO15uLA9PohZZ0-58" value="" style="endArrow=classic;dashed=1;html=1;dashPattern=1 3;strokeWidth=2;rounded=0;endFill=1;" parent="1" edge="1">
          <mxGeometry width="50" height="50" relative="1" as="geometry">
            <mxPoint x="7920" y="19.409999999999997" as="sourcePoint" />
            <mxPoint x="7390" y="19.409999999999997" as="targetPoint" />
          </mxGeometry>
        </mxCell>
        <mxCell id="rduZXuOO15uLA9PohZZ0-59" value="4c:Se não houver interações alimentares" style="text;html=1;strokeColor=none;fillColor=none;align=center;verticalAlign=middle;whiteSpace=wrap;rounded=0;fontStyle=1;fontSize=14;" parent="1" vertex="1">
          <mxGeometry x="8380" y="-210" width="190" height="30" as="geometry" />
        </mxCell>
        <mxCell id="rduZXuOO15uLA9PohZZ0-60" value="" style="edgeStyle=orthogonalEdgeStyle;rounded=0;orthogonalLoop=1;jettySize=auto;html=1;" parent="1" source="rduZXuOO15uLA9PohZZ0-61" edge="1">
          <mxGeometry relative="1" as="geometry">
            <mxPoint x="8180" y="20" as="targetPoint" />
          </mxGeometry>
        </mxCell>
        <mxCell id="rduZXuOO15uLA9PohZZ0-61" value=":Utilizador" style="shape=umlActor;verticalLabelPosition=bottom;verticalAlign=top;html=1;outlineConnect=0;fontStyle=1;fontSize=17;" parent="1" vertex="1">
          <mxGeometry x="8150" y="-180" width="60" height="120" as="geometry" />
        </mxCell>
        <mxCell id="rduZXuOO15uLA9PohZZ0-62" value=":Sistema" style="rounded=0;whiteSpace=wrap;html=1;fontStyle=1;fontSize=17;" parent="1" vertex="1">
          <mxGeometry x="8650" y="-90" width="120" height="60" as="geometry" />
        </mxCell>
        <mxCell id="rduZXuOO15uLA9PohZZ0-63" value="" style="endArrow=none;dashed=1;html=1;rounded=0;fontStyle=1;fontSize=16;strokeWidth=1;" parent="1" edge="1">
          <mxGeometry width="50" height="50" relative="1" as="geometry">
            <mxPoint x="8180" y="-19" as="sourcePoint" />
            <mxPoint x="8180" y="80" as="targetPoint" />
          </mxGeometry>
        </mxCell>
        <mxCell id="rduZXuOO15uLA9PohZZ0-64" value="" style="endArrow=none;dashed=1;html=1;rounded=0;fontStyle=1;fontSize=16;strokeWidth=1;" parent="1" edge="1">
          <mxGeometry width="50" height="50" relative="1" as="geometry">
            <mxPoint x="8709.5" y="-19" as="sourcePoint" />
            <mxPoint x="8710" y="80" as="targetPoint" />
          </mxGeometry>
        </mxCell>
        <mxCell id="rduZXuOO15uLA9PohZZ0-71" value="Indica que não existe interações para o medicamento" style="text;html=1;align=center;verticalAlign=middle;resizable=0;points=[];autosize=1;strokeColor=none;fillColor=none;" parent="1" vertex="1">
          <mxGeometry x="8285" y="-10.590000000000003" width="310" height="30" as="geometry" />
        </mxCell>
        <mxCell id="rduZXuOO15uLA9PohZZ0-72" value="" style="endArrow=classic;dashed=1;html=1;dashPattern=1 3;strokeWidth=2;rounded=0;endFill=1;" parent="1" edge="1">
          <mxGeometry width="50" height="50" relative="1" as="geometry">
            <mxPoint x="8710" y="19.409999999999997" as="sourcePoint" />
            <mxPoint x="8180" y="19.409999999999997" as="targetPoint" />
          </mxGeometry>
        </mxCell>
      </root>
    </mxGraphModel>
  </diagram>
  <diagram id="G_V1fMW-LpbxfZm_5tgC" name="Página-16">
    <mxGraphModel dx="758" dy="442" grid="1" gridSize="10" guides="1" tooltips="1" connect="1" arrows="1" fold="1" page="1" pageScale="1" pageWidth="827" pageHeight="1169" math="0" shadow="0">
      <root>
        <mxCell id="0" />
        <mxCell id="1" parent="0" />
      </root>
    </mxGraphModel>
  </diagram>
  <diagram id="eF589mXjGoLL9e2xIJth" name="Página-4">
    <mxGraphModel dx="758" dy="442" grid="1" gridSize="10" guides="1" tooltips="1" connect="1" arrows="1" fold="1" page="1" pageScale="1" pageWidth="827" pageHeight="1169" math="0" shadow="0">
      <root>
        <mxCell id="0" />
        <mxCell id="1" parent="0" />
      </root>
    </mxGraphModel>
  </diagram>
</mxfile>
